 <svg  version="1.0" xmlns="http://www.w3.org/2000/svg"  width="300.000000pt" height="169.000000pt" viewBox="0 0 300.000000 169.000000"  preserveAspectRatio="xMidYMid meet">  <g transform="translate(0.000000,169.000000) scale(0.100000,-0.100000)" fill="#fcfcfc" stroke="none"> <path d="M1191 1340 c-68 -10 -128 -52 -161 -110 l-25 -45 0 -345 0 -345 25 -45 c14 -24 44 -57 66 -73 57 -40 162 -50 479 -45 281 5 311 11 371 80 57 65 59 82 59 438 0 314 -1 326 -22 365 -27 51 -68 89 -118 112 -35 15 -78 17 -330 19 -159 1 -314 -1 -344 -6z m461 -148 c65 -28 113 -76 148 -144 32 -65 29 -78 -17 -78 -14 0 -24 8 -28 23 -13 43 -59 99 -103 125 -36 20 -62 27 -128 30 -72 4 -89 1 -137 -21 -90 -41 -134 -119 -144 -257 -6 -88 14 -185 52 -242 38 -57 103 -90 190 -96 110 -7 195 29 231 100 22 42 14 111 -17 144 l-23 24 -18 -49 c-35 -93 -121 -132 -214 -96 -51 19 -74 48 -80 102 -10 82 57 137 168 137 75 1 86 13 48 53 -30 33 -74 38 -122 14 -39 -19 -44 -19 -66 -5 -23 15 -23 16 -5 36 48 53 154 66 213 26 38 -27 70 -81 70 -120 0 -18 7 -29 19 -33 32 -10 89 -81 101 -126 25 -93 -37 -203 -142 -250 -75 -33 -211 -33 -283 -1 -126 57 -187 174 -186 356 0 199 83 327 238 366 58 14 184 5 235 -18z"/> <path d="M1458 814 c-36 -19 -39 -65 -6 -88 27 -19 88 -21 111 -3 19 13 48 87 40 99 -8 14 -117 8 -145 -8z"/> </g> </svg> 